# xmcd CD database file
#
# Track frame offsets:
#	150
#	16912
#	30132
#	46318
#	59204
#	76905
#	93496
#	114362
#	128820
#	142466
#	158678
#	171347
#
# Disc length: 2495 seconds
#
# Revision: 1
# Processed by: cddbd v1.5.2PL0 Copyright (c) Steve Scherf et al.
# Submitted via: jetAudio 7
#
DISCID=9b09bd0c
DTITLE=Various Artist - Music up (Nº7)
DYEAR=1998
DGENRE=Top 40
TTITLE0=Gloria Gaynor - Sobreviviré -I will survive-
TTITLE1=The Housemartins - Yo y el granjero -Me and the farmer-
TTITLE2=James Brown - El mix de la revancha -The playback mix-
TTITLE3=Style Council - Tierra prometida -Promised land-
TTITLE4=Curiosity Killed The Cat - Día comun -Ordinary day-
TTITLE5=ABC - Quedate cerca mío -Be near me-
TTITLE6=Love And Money - Hombre aleluya -Hallelujah man-
TTITLE7=Hipsway - El ladron de miel -The honeythief
TTITLE8=The Jackson 5 - Quiero que regreses -I want you back-
TTITLE9=Jimmy Somerville - Como decirte adios -Comment te dire adieu-
TTITLE10=Rare Earth - Aprontate -Get ready-
TTITLE11=The Beautiful South - Sueña un sueñito con migo -Dream a littl
TTITLE11=e dream
EXTD=
EXTT0=
EXTT1=
EXTT2=
EXTT3=
EXTT4=
EXTT5=
EXTT6=
EXTT7=
EXTT8=
EXTT9=
EXTT10=
EXTT11=
PLAYORDER=
